<?xml version="1.0" encoding="UTF-8"?>
<svg id="Layer_4" data-name="Layer 4" xmlns="http://www.w3.org/2000/svg" viewBox="0 0 392.52 327.74">
  <defs>
    <style>
      .cls-1 {
        fill: #7e7fbd;
      }

      .cls-2 {
        fill: #e21858;
      }

      .cls-3 {
        fill: #b31949;
      }

      .cls-4 {
        fill: #fff;
      }

      .cls-5 {
        fill: #7ac798;
      }

      .cls-6 {
        fill: #f2d0a4;
      }
    </style>
  </defs>
  <polygon class="cls-2" points="392.6 327.74 -.56 327.74 -.56 0 297.69 0 297.69 0 392.6 123.38 392.6 327.74"/>
  <g>
    <path class="cls-4" d="M20.02,94.9l3.07-64.03h11.23l17.76,30.24,17.47-30.24h11.23l3.07,64.03h-11.81l-2.11-44.35-15.36,26.11h-5.66l-15.46-25.44-2.11,43.68h-11.33Z"/>
    <path class="cls-4" d="M131.57,81.46l6.14,6.91c-.19.19-.72.72-1.58,1.58-.86.86-2.11,1.79-3.74,2.78-1.63.99-3.71,1.86-6.24,2.59-2.53.73-5.55,1.1-9.07,1.1-4.8,0-8.98-1.04-12.53-3.12-3.55-2.08-6.32-4.98-8.3-8.69-1.98-3.71-2.98-7.97-2.98-12.77,0-4.42.97-8.4,2.93-11.95,1.95-3.55,4.64-6.37,8.06-8.45,3.42-2.08,7.38-3.12,11.86-3.12,4.16,0,7.65.74,10.46,2.21,2.82,1.47,5.09,3.44,6.82,5.9,1.73,2.46,2.98,5.23,3.74,8.3.77,3.07,1.15,6.21,1.15,9.41v1.63h-33.6c0,2.18.62,4.08,1.87,5.71,1.25,1.63,2.83,2.91,4.75,3.84,1.92.93,3.87,1.39,5.86,1.39,2.94,0,5.38-.34,7.3-1.01s3.46-1.42,4.61-2.26c1.15-.83,1.98-1.5,2.5-2.02ZM104.59,67.63h22.08c0-1.54-.4-3.06-1.2-4.56-.8-1.5-1.97-2.75-3.5-3.74-1.54-.99-3.49-1.49-5.86-1.49-2.5,0-4.59.5-6.29,1.49-1.7.99-2.99,2.24-3.89,3.74-.9,1.5-1.34,3.02-1.34,4.56Z"/>
    <path class="cls-4" d="M147.02,94.9v-45.02h10.85l.29,5.09c1.09-1.34,2.66-2.69,4.7-4.03,2.05-1.34,4.83-2.02,8.35-2.02,5.95,0,10.46,2.18,13.54,6.53,2.3-2.37,4.67-4.05,7.1-5.04,2.43-.99,5.21-1.49,8.35-1.49,5.7,0,10.06,1.68,13.1,5.04,3.04,3.36,4.56,7.89,4.56,13.58v27.36h-11.33v-27.26c0-2.82-.72-5.02-2.16-6.62-1.44-1.6-3.41-2.4-5.9-2.4-3.14,0-5.65,1.15-7.54,3.46-1.89,2.3-2.83,5.12-2.83,8.45v24.38h-11.33v-27.26c0-2.82-.72-5.02-2.16-6.62-1.44-1.6-3.41-2.4-5.9-2.4-3.14,0-5.65,1.15-7.54,3.46s-2.83,5.12-2.83,8.45v24.38h-11.33Z"/>
    <path class="cls-4" d="M226.7,72.34c0-4.35,1.02-8.35,3.07-12,2.05-3.65,4.88-6.56,8.5-8.74,3.61-2.18,7.82-3.26,12.62-3.26s9.01,1.09,12.62,3.26c3.61,2.18,6.45,5.09,8.5,8.74,2.05,3.65,3.07,7.65,3.07,12s-1.02,8.35-3.07,12c-2.05,3.65-4.88,6.58-8.5,8.78-3.62,2.21-7.82,3.31-12.62,3.31s-9.01-1.1-12.62-3.31c-3.62-2.21-6.45-5.14-8.5-8.78-2.05-3.65-3.07-7.65-3.07-12ZM250.89,86.64c2.88,0,5.26-.74,7.15-2.21,1.89-1.47,3.3-3.31,4.22-5.52.93-2.21,1.39-4.4,1.39-6.58s-.46-4.35-1.39-6.53c-.93-2.18-2.34-4-4.22-5.47-1.89-1.47-4.27-2.21-7.15-2.21s-5.27.74-7.15,2.21c-1.89,1.47-3.3,3.3-4.22,5.47-.93,2.18-1.39,4.35-1.39,6.53s.46,4.37,1.39,6.58c.93,2.21,2.33,4.05,4.22,5.52,1.89,1.47,4.27,2.21,7.15,2.21Z"/>
    <path class="cls-4" d="M17.04,180.63l8.45-7.78c1.09,1.15,2.37,2.4,3.84,3.74,1.47,1.34,3.23,2.5,5.28,3.46,2.05.96,4.42,1.44,7.1,1.44,3.78,0,6.58-.88,8.4-2.64,1.82-1.76,2.74-3.82,2.74-6.19,0-2.75-1.12-4.9-3.36-6.43-2.24-1.54-6.24-2.85-12-3.94-3.9-.77-7.12-2.08-9.65-3.94-2.53-1.86-4.42-4.08-5.66-6.67-1.25-2.59-1.87-5.3-1.87-8.11,0-3.26.82-6.29,2.45-9.07,1.63-2.78,4.09-5.04,7.39-6.77,3.3-1.73,7.44-2.59,12.43-2.59,3.39,0,6.3.37,8.74,1.1,2.43.74,4.46,1.63,6.1,2.69,1.63,1.06,2.9,2.08,3.79,3.07.9.99,1.54,1.71,1.92,2.16l-7.97,7.49c-.38-.38-1.14-1.06-2.26-2.02-1.12-.96-2.56-1.84-4.32-2.64-1.76-.8-3.89-1.2-6.38-1.2-3.33,0-5.78.8-7.34,2.4-1.57,1.6-2.35,3.2-2.35,4.8,0,2.24.91,4.08,2.74,5.52,1.82,1.44,5.36,2.7,10.61,3.79,3.33.7,6.45,1.84,9.36,3.41,2.91,1.57,5.26,3.74,7.06,6.53,1.79,2.78,2.69,6.35,2.69,10.7,0,3.71-.99,7.06-2.98,10.03-1.98,2.98-4.72,5.33-8.21,7.06-3.49,1.73-7.44,2.59-11.86,2.59s-7.95-.64-11.18-1.92c-3.23-1.28-5.99-2.86-8.26-4.75-2.27-1.89-4.08-3.66-5.42-5.33Z"/>
    <path class="cls-4" d="M74.64,210.1v-64.22h10.94l.29,5.09c1.15-1.28,2.9-2.59,5.23-3.94,2.33-1.34,5.36-2.02,9.07-2.02,4.61,0,8.4,1.14,11.38,3.41,2.98,2.27,5.2,5.2,6.67,8.78,1.47,3.58,2.21,7.39,2.21,11.42,0,3.52-.51,6.53-1.54,9.02-1.02,2.5-2.3,4.67-3.84,6.53-2.56,3.01-5.36,5.14-8.4,6.38-3.04,1.25-6.16,1.87-9.36,1.87-2.94,0-5.17-.24-6.67-.72-1.5-.48-3.09-1.04-4.75-1.68v20.06h-11.23ZM85.87,166.51v13.34c2.24,1.86,5.63,2.78,10.18,2.78,2.75,0,5.09-.67,7.01-2.02,1.92-1.34,3.39-3.09,4.42-5.23,1.02-2.14,1.54-4.4,1.54-6.77,0-2.56-.37-4.88-1.1-6.96-.74-2.08-1.97-3.74-3.7-4.99-1.73-1.25-4.03-1.87-6.91-1.87-2.3,0-4.3.61-6,1.82-1.7,1.22-3.02,2.74-3.98,4.56-.96,1.82-1.44,3.6-1.44,5.33Z"/>
    <path class="cls-4" d="M129.46,190.9v-64.03h11.14v23.62c1.15-1.28,2.85-2.53,5.09-3.74,2.24-1.21,5.05-1.82,8.45-1.82,5.57,0,9.84,1.73,12.82,5.18,2.98,3.46,4.46,7.94,4.46,13.44v27.36h-11.33v-27.26c0-2.82-.79-5.02-2.35-6.62-1.57-1.6-3.6-2.4-6.1-2.4-3.14,0-5.73,1.15-7.78,3.46-2.05,2.3-3.07,5.12-3.07,8.45v24.38h-11.33Z"/>
    <path class="cls-4" d="M218.54,177.46l6.14,6.91c-.19.19-.72.72-1.58,1.58-.86.86-2.11,1.79-3.74,2.78-1.63.99-3.71,1.86-6.24,2.59-2.53.73-5.55,1.1-9.07,1.1-4.8,0-8.98-1.04-12.53-3.12-3.55-2.08-6.32-4.98-8.3-8.69-1.98-3.71-2.98-7.97-2.98-12.77,0-4.42.97-8.4,2.93-11.95,1.95-3.55,4.64-6.37,8.06-8.45,3.42-2.08,7.38-3.12,11.86-3.12,4.16,0,7.65.74,10.46,2.21,2.82,1.47,5.09,3.44,6.82,5.9,1.73,2.46,2.98,5.23,3.74,8.3.77,3.07,1.15,6.21,1.15,9.41v1.63h-33.6c0,2.18.62,4.08,1.87,5.71,1.25,1.63,2.83,2.91,4.75,3.84,1.92.93,3.87,1.39,5.86,1.39,2.94,0,5.38-.34,7.3-1.01s3.46-1.42,4.61-2.26c1.15-.83,1.98-1.5,2.5-2.02ZM191.57,163.63h22.08c0-1.54-.4-3.06-1.2-4.56-.8-1.5-1.97-2.75-3.5-3.74-1.54-.99-3.49-1.49-5.86-1.49-2.5,0-4.59.5-6.29,1.49-1.7.99-2.99,2.24-3.89,3.74-.9,1.5-1.34,3.02-1.34,4.56Z"/>
    <path class="cls-4" d="M234,190.9v-45.02h10.85l.29,5.66c.7-.9,1.65-1.84,2.83-2.83,1.18-.99,2.66-1.86,4.42-2.59,1.76-.73,3.85-1.1,6.29-1.1,1.09,0,2.06.06,2.93.19.86.13,1.74.35,2.64.67l-2.3,10.66c-1.54-.58-3.26-.86-5.18-.86-3.14,0-5.83.99-8.06,2.98-2.24,1.98-3.36,4.64-3.36,7.97v24.29h-11.33Z"/>
    <path class="cls-4" d="M305.9,177.46l6.14,6.91c-.19.19-.72.72-1.58,1.58-.86.86-2.11,1.79-3.74,2.78-1.63.99-3.71,1.86-6.24,2.59-2.53.73-5.55,1.1-9.07,1.1-4.8,0-8.98-1.04-12.53-3.12-3.55-2.08-6.32-4.98-8.3-8.69-1.98-3.71-2.98-7.97-2.98-12.77,0-4.42.97-8.4,2.93-11.95,1.95-3.55,4.64-6.37,8.06-8.45,3.42-2.08,7.38-3.12,11.86-3.12,4.16,0,7.65.74,10.46,2.21,2.82,1.47,5.09,3.44,6.82,5.9,1.73,2.46,2.98,5.23,3.74,8.3.77,3.07,1.15,6.21,1.15,9.41v1.63h-33.6c0,2.18.62,4.08,1.87,5.71,1.25,1.63,2.83,2.91,4.75,3.84,1.92.93,3.87,1.39,5.86,1.39,2.94,0,5.38-.34,7.3-1.01s3.46-1.42,4.61-2.26c1.15-.83,1.98-1.5,2.5-2.02ZM278.93,163.63h22.08c0-1.54-.4-3.06-1.2-4.56-.8-1.5-1.97-2.75-3.5-3.74-1.54-.99-3.49-1.49-5.86-1.49-2.5,0-4.59.5-6.29,1.49-1.7.99-2.99,2.24-3.89,3.74-.9,1.5-1.34,3.02-1.34,4.56Z"/>
  </g>
  <polygon class="cls-3" points="392.6 123.38 297.69 123.38 297.69 0 392.6 123.38"/>
  <rect class="cls-6" x="-.56" y="245.71" width="131" height="82.03"/>
  <rect class="cls-5" x="130.52" y="245.71" width="131" height="82.03"/>
  <rect class="cls-1" x="261.52" y="245.71" width="131" height="82.03"/>
</svg>